#!OML:ASF E:\emotionWalksFemale\Project 1\Capture day 1\Session 1\Female1.ASF
:FULLY-SPECIFIED
:DEGREES
721
root 8.71222 15.4293 -36.0605 176.515 7.57686 -180.335
lowerback 8.1202 0.445713 -0.325871
upperback -3.43072 0.661117 0.880354
thorax -8.20044 0.380604 1.01145
lowerneck -9.59332 -0.324742 -4.54831
upperneck 9.47038 -0.264208 4.68095
head 4.41492 0.0056639 2.16918
rclavicle -1.19271e-015 -5.96354e-015
rhumerus -39.9886 3.06148 -81.7036
rradius 33.796
rwrist 12.2455
rhand -1.5454 -54.3664
rfingers 7.12502
rthumb 24.1093 -82.8716
lclavicle -1.19271e-015 -5.96354e-015
lhumerus -28.8274 -8.74538 85.5573
lradius 34.9216
lwrist -16.6553
lhand -7.50849 -32.9363
lfingers 7.12502
lthumb 18.3817 -3.78478
rfemur -12.9413 5.84233 22.1858
rtibia 44.924
rfoot -25.5833 -18.7405
rtoes -17.9535
lfemur -7.37856 -22.0168 -29.545
ltibia 26.1782
lfoot -22.1561 27.8826
ltoes 6.79318
722
root 8.72635 15.415 -36.1145 176.486 7.28422 -180.781
lowerback 7.97798 0.411265 -0.94235
upperback -3.48082 0.531836 0.720964
thorax -8.17353 0.345256 1.21014
lowerneck -9.68637 -0.446499 -4.66666
upperneck 9.75082 -0.433089 4.90623
head 4.52509 -0.063643 2.24998
rclavicle -2.88238e-015 -5.36719e-015
rhumerus -40.0552 3.51091 -82.4372
rradius 33.6187
rwrist 12.3986
rhand -2.34166 -54.1863
rfingers 7.12502
rthumb 23.3457 -82.7906
lclavicle -2.88238e-015 -5.36719e-015
lhumerus -28.5539 -8.88575 85.6721
lradius 35.3038
lwrist -16.1031
lhand -7.88963 -32.9875
lfingers 7.12502
lthumb 18.015 -3.80182
rfemur -12.7293 6.69257 21.7287
rtibia 43.4185
rfoot -25.4773 -19.1355
rtoes -17.8654
lfemur -7.38173 -21.7618 -30.0935
ltibia 26.6505
lfoot -22.4196 27.4701
ltoes 5.80958
723
root 8.73962 15.4014 -36.1458 176.705 7.00407 -180.347
lowerback 8.17372 0.361582 -0.538583
upperback -3.74443 0.521465 0.725932
thorax -8.56827 0.325161 0.988359
lowerneck -9.37309 -0.626962 -4.81212
upperneck 9.83258 -0.682641 5.09141
head 4.51132 -0.180176 2.31504
rclavicle 1.16289e-014 -5.36719e-015
rhumerus -40.4187 3.74423 -83.144
rradius 33.5245
rwrist 12.7052
rhand -2.55421 -54.1645
rfingers 7.12502
rthumb 23.1417 -82.7945
lclavicle 1.16289e-014 -5.36719e-015
lhumerus -28.4455 -9.30646 85.8857
lradius 35.6849
lwrist -15.2745
lhand -8.2581 -32.6365
lfingers 7.12502
lthumb 17.6605 -3.41852
rfemur -12.7379 7.8208 22.2466
rtibia 41.8966
rfoot -25.6028 -19.2644
rtoes -16.7172
lfemur -7.74229 -21.4064 -29.5168
ltibia 27.134
lfoot -22.6266 26.837
ltoes 5.48252
724
root 8.74969 15.3836 -36.1939 176.284 6.6813 -180.701
lowerback 8.2461 0.375517 -0.925727
upperback -3.54678 0.472493 0.580502
thorax -8.39782 0.312343 1.06024
lowerneck -9.12933 -0.806777 -5.08936
upperneck 9.60904 -0.914184 5.29397
head 4.41609 -0.296023 2.40644
rclavicle -4.42296e-015 -3.57812e-015
rhumerus -40.3328 3.96548 -83.7148
rradius 33.4543
rwrist 12.9992
rhand -2.4668 -54.0337
rfingers 7.12502
rthumb 23.2256 -82.6532
lclavicle -4.42296e-015 -3.57812e-015
lhumerus -27.9352 -9.6084 86.1956
lradius 36.1029
lwrist -14.1395
lhand -8.55434 -32.014
lfingers 7.12502
lthumb 17.3754 -2.77059
rfemur -12.0692 8.77806 21.9193
rtibia 40.5306
rfoot -26.1756 -19.1123
rtoes -14.9224
lfemur -7.25814 -21.3255 -30.1484
ltibia 27.5246
lfoot -23.0932 26.5358
ltoes 5.31016
725
root 8.76466 15.3656 -36.2466 176.187 6.50573 -181.025
lowerback 7.71164 0.422683 -1.36237
upperback -3.29837 0.47598 0.445504
thorax -7.82203 0.325721 1.16563
lowerneck -8.88914 -0.943604 -5.45412
upperneck 9.15754 -1.10119 5.76807
head 4.25236 -0.379212 2.59838
rclavicle 1.56791e-014 1.78906e-015
rhumerus -40.0691 4.4084 -84.4396
rradius 33.3821
rwrist 13.0572
rhand -2.74981 -53.9409
rfingers 7.12502
rthumb 22.9541 -82.5943
lclavicle 1.56791e-014 1.78906e-015
lhumerus -27.2394 -9.96995 86.4193
lradius 36.4967
lwrist -12.9948
lhand -9.09652 -31.7755
lfingers 7.12502
lthumb 16.8535 -2.48684
rfemur -11.647 9.89626 21.6298
rtibia 39.1508
rfoot -26.2618 -19.0457
rtoes -13.7385
lfemur -7.17303 -21.246 -30.5787
ltibia 27.9668
lfoot -23.6316 26.2889
ltoes 4.77161
726
root 8.77976 15.3389 -36.291 176.202 6.29738 -180.99
lowerback 7.58546 0.389478 -1.49135
upperback -3.3819 0.421551 0.433723
thorax -7.83785 0.307505 1.23376
lowerneck -8.3253 -1.02425 -5.76362
upperneck 8.8822 -1.22354 6.17218
head 4.08572 -0.434035 2.76538
rclavicle 5.44173e-015 -2.18663e-015
rhumerus -40.3752 5.31755 -85.3725
rradius 33.4211
rwrist 12.9429
rhand -2.71362 -54.3197
rfingers 7.12502
rthumb 22.9888 -82.9689
lclavicle 5.44173e-015 -2.18663e-015
lhumerus -27.0845 -9.96229 86.6486
lradius 36.9195
lwrist -12.2961
lhand -9.77683 -31.6619
lfingers 7.12502
lthumb 16.1985 -2.31869
rfemur -11.2053 10.8911 21.7261
rtibia 37.8746
rfoot -25.9385 -19.1912
rtoes -15.5519
lfemur -7.16029 -21.0953 -30.5706
ltibia 28.2575
lfoot -23.791 26.0953
ltoes 3.81249
727
root 8.79479 15.3353 -36.3358 175.957 6.00043 -180.937
lowerback 7.88316 0.397826 -1.45368
upperback -3.49099 0.427173 0.347176
thorax -8.12758 0.309255 1.11902
lowerneck -7.88554 -1.17505 -5.916
upperneck 8.96743 -1.43642 6.31525
head 4.05355 -0.538185 2.82316
rclavicle -4.99446e-015 -3.57812e-015
rhumerus -40.8377 5.92844 -86.2804
rradius 33.4644
rwrist 12.9008
rhand -2.40825 -54.6505
rfingers 7.12502
rthumb 23.2818 -83.2629
lclavicle -4.99446e-015 -3.57812e-015
lhumerus -27.0956 -9.52502 86.8342
lradius 37.569
lwrist -11.7872
lhand -8.76278 -31.2944
lfingers 7.12502
lthumb 17.1748 -2.03344
rfemur -10.644 11.9097 21.8801
rtibia 36.6358
rfoot -24.9913 -19.5675
rtoes -18.0864
lfemur -6.86059 -20.88 -30.6266
ltibia 28.6131
lfoot -23.941 25.7826
ltoes 3.39715
728
root 8.81209 15.3229 -36.3822 175.683 5.57421 -181.194
lowerback 7.55891 0.419799 -1.76789
upperback -3.18739 0.409969 0.180535
thorax -7.6139 0.302999 1.12509
lowerneck -7.95837 -1.47705 -6.30579
upperneck 8.88954 -1.83495 6.76554
head 4.07464 -0.72215 3.00271
rclavicle 1.27968e-015 -4.07509e-015
rhumerus -40.5981 6.3476 -87.0463
rradius 33.4259
rwrist 13.0166
rhand -1.75327 -54.8714
rfingers 7.12502
rthumb 23.91 -83.4029
lclavicle 1.27968e-015 -4.07509e-015
lhumerus -26.4022 -9.36258 86.9827
lradius 38.2278
lwrist -10.4942
lhand -6.49978 -30.8947
lfingers 7.12502
lthumb 19.3519 -1.83761
rfemur -9.9088 12.7434 21.7101
rtibia 35.5238
rfoot -24.1041 -19.6658
rtoes -18.7005
lfemur -6.53758 -20.6365 -31.0119
ltibia 28.899
lfoot -24.0178 25.3302
ltoes 2.60131
729
root 8.82734 15.3171 -36.4102 175.99 5.22279 -181.046
lowerback 7.21561 0.424648 -1.69983
upperback -3.25448 0.431031 0.134534
thorax -7.48616 0.310085 1.03669
lowerneck -7.72926 -1.71116 -6.51551
upperneck 8.76023 -2.15242 6.98879
head 4.02322 -0.876837 3.08754
rclavicle 1.72446e-014 -2.98177e-015
rhumerus -40.6679 6.86134 -87.8506
rradius 33.5138
rwrist 13.2087
rhand -0.724906 -55.1667
rfingers 7.12502
rthumb 24.8959 -83.5654
lclavicle 1.72446e-014 -2.98177e-015
lhumerus -26.0535 -9.4548 87.2283
lradius 38.9528
lwrist -9.48521
lhand -5.20304 -30.6286
lfingers 7.12502
lthumb 20.5983 -1.70147
rfemur -9.87814 13.609 21.8785
rtibia 34.5684
rfoot -22.5684 -19.7547
rtoes -18.6015
lfemur -6.86177 -20.6456 -30.7083
ltibia 29.0307
lfoot -24.0252 24.9991
ltoes 2.16557
730
root 8.84322 15.3112 -36.4326 175.954 4.7794 -181.434
lowerback 7.69422 0.455298 -2.10996
upperback -3.57156 0.407995 -0.093251
thorax -8.10672 0.324939 1.02605
lowerneck -6.99811 -1.87194 -6.70825
upperneck 8.63336 -2.39557 7.2594
head 3.8852 -0.996953 3.19181
rclavicle -2.08413e-014 -3.03147e-015
rhumerus -41.3556 7.37651 -88.7734
rradius 33.7996
rwrist 13.3229
rhand 0.0736052 -55.5445
rfingers 7.12502
rthumb 25.6609 -83.8351
lclavicle -2.08413e-014 -3.03147e-015
lhumerus -26.4929 -9.60354 87.5991
lradius 38.7715
lwrist -12.713
lhand -10.236 -32.2258
lfingers 7.12502
lthumb 15.7563 -2.84712
rfemur -9.58632 14.2938 21.557
rtibia 33.862
rfoot -20.2206 -20.0503
rtoes -17.2072
lfemur -6.85534 -20.4811 -31.0669
ltibia 29.1092
lfoot -23.8526 24.6101
ltoes 1.60133
731
root 8.85531 15.3089 -36.479 175.861 4.40474 -181.447
lowerback 7.2597 0.432018 -2.20734
upperback -3.40757 0.375567 -0.118405
thorax -7.67708 0.30722 1.06218
lowerneck -6.69684 -2.048 -7.09604
upperneck 8.47042 -2.63158 7.60444
head 3.8121 -1.11374 3.35028
rclavicle -1.06971e-014 -4.07509e-015
rhumerus -41.4661 8.17376 -89.5917
rradius 34.0526
rwrist 13.3492
rhand 0.770943 -56.029
rfingers 7.12502
rthumb 26.3286 -84.2215
lclavicle -1.06971e-014 -4.07509e-015
lhumerus -26.0863 -9.63478 87.9663
lradius 39.3682
lwrist -11.514
lhand -9.2291 -31.8106
lfingers 7.12502
lthumb 16.7259 -2.51116
rfemur -8.94766 14.5041 21.6906
rtibia 33.2906
rfoot -18.5147 -20.1909
rtoes -13.4005
lfemur -6.60952 -20.1495 -31.1288
ltibia 29.2188
lfoot -23.7769 24.1467
ltoes 0.583315
732
root 8.86639 15.3076 -36.5107 175.694 4.18464 -181.274
lowerback 7.27276 0.459821 -2.07697
upperback -3.36725 0.424856 -0.119452
thorax -7.64174 0.323383 0.981216
lowerneck -6.69969 -2.34409 -7.33809
upperneck 8.74846 -3.01984 7.69656
head 3.93117 -1.3041 3.39778
rclavicle -9.26057e-015 -2.88238e-015
rhumerus -41.6438 9.24376 -90.6154
rradius 34.0421
rwrist 13.0192
rhand 1.64124 -56.4857
rfingers 7.12502
rthumb 27.1614 -84.551
lclavicle -9.26057e-015 -2.88238e-015
lhumerus -25.9122 -10.1891 88.5196
lradius 39.9179
lwrist -8.72453
lhand -8.58757 -31.0717
lfingers 7.12502
lthumb 17.3434 -1.82553
rfemur -8.35673 14.6476 22.0773
rtibia 32.9759
rfoot -18.0729 -20.4287
rtoes -10.9197
lfemur -6.23077 -19.9302 -30.9918
ltibia 29.1175
lfoot -23.5698 23.8855
ltoes -0.719763
